<svg xmlns="http://www.w3.org/2000/svg" width="1920" height="1080">
  <defs>
    <linearGradient id="bg" x1="0" y1="0" x2="0" y2="1">
      <stop offset="0%" stop-color="#1a0000"/>
      <stop offset="50%" stop-color="#8B0000"/>
      <stop offset="100%" stop-color="#4A0000"/>
    </linearGradient>
    <linearGradient id="strand" x1="0" y1="0" x2="1" y2="0">
      <stop offset="0%" stop-color="#F5DEB3"/>
      <stop offset="100%" stop-color="#FFD700"/>
    </linearGradient>
  </defs>
  <rect width="1920" height="1080" fill="url(#bg)"/>
  <g opacity="0.15">
    <path d="M0,200 Q300,100 600,300 T1200,200 T1920,400" stroke="#F5DEB3" stroke-width="3" fill="none"/>
    <path d="M0,400 Q200,600 500,400 T1100,600 T1920,500" stroke="#FFD700" stroke-width="2" fill="none"/>
    <path d="M0,600 Q400,800 800,600 T1400,800 T1920,700" stroke="#F5DEB3" stroke-width="3" fill="none"/>
    <path d="M0,800 Q300,600 700,800 T1300,600 T1920,900" stroke="#FFD700" stroke-width="2" fill="none"/>
    <path d="M0,100 Q500,300 900,100 T1500,300 T1920,200" stroke="#F5DEB3" stroke-width="2" fill="none"/>
  </g>
  <g transform="translate(960,440)">
    <ellipse cx="0" cy="0" rx="120" ry="60" fill="#FFD700" opacity="0.9"/>
    <ellipse cx="0" cy="0" rx="90" ry="45" fill="#8B0000"/>
    <text x="0" y="10" text-anchor="middle" fill="#FFD700" font-family="serif" font-size="28" font-weight="bold">S</text>
  </g>
  <text x="960" y="580" text-anchor="middle" fill="#F5DEB3" font-family="serif" font-size="48" font-weight="bold">SpaghettiOS</text>
  <text x="960" y="620" text-anchor="middle" fill="#FFD700" font-family="serif" font-size="20" font-style="italic">"Life is a combination of magic and pasta."</text>
</svg>
